<svg width="509" height="537" viewBox="0 0 509 537" fill="none" xmlns="http://www.w3.org/2000/svg">
<g clip-path="url(#clip0)">
<g filter="url(#filter0_i)">
<path fill-rule="evenodd" clip-rule="evenodd" d="M56.9974 108.084C-28.0078 216.886 -8.7169 373.997 100.085 459.002C208.886 544.008 365.998 524.717 451.003 415.915C536.008 307.113 516.717 150.002 407.915 64.997C299.114 -20.0081 142.002 -0.717276 56.9974 108.084ZM332.126 330.018C377.685 271.705 354.462 224.374 310.333 189.897C278.419 164.962 213.021 162.725 178.07 209.656C136.727 265.172 157.185 315.165 191.464 341.946C234.41 375.5 278.192 399.051 332.126 330.018Z" fill="#CABE92"/>
</g>
<g filter="url(#filter1_i)">
<path fill-rule="evenodd" clip-rule="evenodd" d="M446.342 433.138L456.254 412.329L453.915 378.777L482.26 351.43L485.487 319.688L501.506 293.499L506.888 258.998L481.315 201.583L486.882 162.785L479.79 136.94L461.666 122.78L434.491 116.142L415.579 101.367L405.323 78.7599L398.231 59.4122L377.657 36.206L354.563 25.2949L312.756 35.6259L296.306 38.0019L280.151 25.3808L257.016 16.8229L233.843 25.3675L217.454 39.8471L201.14 20.1215L164.484 17.498L121.628 35.4103L101.619 61.0206L92.3169 91.189L49.1104 116.442L26.6388 145.204L22.4393 180.628L16.1099 207.409L28.6932 228.661L32.9282 257.35L24.8504 281.495L9.15103 301.59L10.751 332.027L27.1145 349.253L50.176 371.712L71.1247 388.079L79.6767 417.603L88.9107 446.391L116.885 468.247L144.503 472.693L172.772 477.116L189.715 490.353L215.325 510.362L251.944 512.219L287.947 492.125L326.659 476.686L360.976 466.061L383.114 469.398L400.537 463.34L429.165 447.002L446.342 433.138ZM171.126 350.094L192.021 360.708L217.668 363.614L229.784 378.156L252.341 390.703L278.703 387.823L307.171 364.38L324.421 356.918L349.7 348.115L371.789 333.648L379.251 310.291L377.06 289.544L370.744 270.015L375.313 246.301L382.245 224.433L373.849 193.762L347.45 173.137L320.387 176.104L295.379 161.008L277.834 142.858L262.283 135.15L240.193 149.617L224.186 170.105L187.776 195.592L157.536 207.498L124.795 239.658L132.367 266.513L150.996 290.585L142.696 315.826L151.82 335.01L171.126 350.094Z" fill="#8A715A"/>
</g>
<line opacity="0.72" x1="124.948" y1="86.3432" x2="144.587" y2="86.0004" stroke="#33200E" stroke-width="6"/>
<line opacity="0.98" x1="177.385" y1="53.5209" x2="170.954" y2="89.9884" stroke="#33200E" stroke-width="6"/>
<line opacity="0.82" x1="252.163" y1="69.818" x2="263.8" y2="36.0232" stroke="#33200E" stroke-width="6"/>
<line opacity="0.94" x1="314.354" y1="23.5209" x2="310.888" y2="43.1816" stroke="#33200E" stroke-width="6"/>
<line opacity="0.75" x1="375.879" y1="96.4507" x2="390.451" y2="81.8786" stroke="#33200E" stroke-width="6"/>
<line opacity="0.75" x1="177.653" y1="129.819" x2="151.026" y2="139.511" stroke="#33200E" stroke-width="6"/>
<line opacity="0.88" x1="125.748" y1="180.399" x2="102.567" y2="179.995" stroke="#33200E" stroke-width="6"/>
<line opacity="0.95" x1="252.286" y1="117.416" x2="282.068" y2="114.286" stroke="#33200E" stroke-width="6"/>
<line opacity="0.94" x1="385.132" y1="144.119" x2="364.412" y2="134.457" stroke="#33200E" stroke-width="6"/>
<line opacity="0.73" x1="413.847" y1="207.636" x2="430.086" y2="220.324" stroke="#33200E" stroke-width="6"/>
<line opacity="0.73" x1="15.8953" y1="248.802" x2="46.7885" y2="247.723" stroke="#33200E" stroke-width="6"/>
<line opacity="0.92" x1="106.029" y1="316.339" x2="110.914" y2="281.582" stroke="#33200E" stroke-width="6"/>
<line opacity="0.79" x1="81.2842" y1="139.819" x2="51.0261" y2="150.832" stroke="#33200E" stroke-width="6"/>
<line opacity="0.77" x1="430.876" y1="161.592" x2="456.552" y2="151.218" stroke="#33200E" stroke-width="6"/>
<line opacity="0.71" x1="408.926" y1="307.711" x2="387.68" y2="313.008" stroke="#33200E" stroke-width="6"/>
<line opacity="0.71" x1="79.1496" y1="337.913" x2="44.1731" y2="327.884" stroke="#33200E" stroke-width="6"/>
<line opacity="0.9" x1="137.39" y1="416.656" x2="163.605" y2="433.037" stroke="#33200E" stroke-width="6"/>
<line opacity="0.89" x1="379.279" y1="381.079" x2="402.731" y2="357.627" stroke="#33200E" stroke-width="6"/>
<line opacity="0.87" x1="411.123" y1="329.525" x2="419.091" y2="364.037" stroke="#33200E" stroke-width="6"/>
<line opacity="0.95" x1="303.121" y1="408.879" x2="327.939" y2="433.697" stroke="#33200E" stroke-width="6"/>
<line opacity="0.91" x1="219.457" y1="434.279" x2="234.048" y2="455.117" stroke="#33200E" stroke-width="6"/>
<line opacity="0.7" x1="277.275" y1="485.677" x2="313.67" y2="494.079" stroke="#33200E" stroke-width="6"/>
<line opacity="0.89" x1="206.215" y1="372.362" x2="188.673" y2="406.79" stroke="#33200E" stroke-width="6"/>
<line opacity="0.96" x1="464.801" y1="264.544" x2="441.59" y2="279.048" stroke="#33200E" stroke-width="6"/>
</g>
<defs>
<filter id="filter0_i" x="-96.918" y="-88.9185" width="701.836" height="701.836" filterUnits="userSpaceOnUse" color-interpolation-filters="sRGB">
<feFlood flood-opacity="0" result="BackgroundImageFix"/>
<feBlend mode="normal" in="SourceGraphic" in2="BackgroundImageFix" result="shape"/>
<feColorMatrix in="SourceAlpha" type="matrix" values="0 0 0 0 0 0 0 0 0 0 0 0 0 0 0 0 0 0 127 0" result="hardAlpha"/>
<feOffset dx="8" dy="10"/>
<feComposite in2="hardAlpha" operator="arithmetic" k2="-1" k3="1"/>
<feColorMatrix type="matrix" values="0 0 0 0 0.895833 0 0 0 0 0.860517 0 0 0 0 0.742795 0 0 0 1 0"/>
<feBlend mode="normal" in2="shape" result="effect1_innerShadow"/>
</filter>
<filter id="filter1_i" x="-95.8779" y="-92.7751" width="708.756" height="707.549" filterUnits="userSpaceOnUse" color-interpolation-filters="sRGB">
<feFlood flood-opacity="0" result="BackgroundImageFix"/>
<feBlend mode="normal" in="SourceGraphic" in2="BackgroundImageFix" result="shape"/>
<feColorMatrix in="SourceAlpha" type="matrix" values="0 0 0 0 0 0 0 0 0 0 0 0 0 0 0 0 0 0 127 0" result="hardAlpha"/>
<feOffset dx="7" dy="10"/>
<feComposite in2="hardAlpha" operator="arithmetic" k2="-1" k3="1"/>
<feColorMatrix type="matrix" values="0 0 0 0 0.658333 0 0 0 0 0.561183 0 0 0 0 0.471806 0 0 0 1 0"/>
<feBlend mode="normal" in2="shape" result="effect1_innerShadow"/>
</filter>
<clipPath id="clip0">
<rect width="509" height="537" fill="white"/>
</clipPath>
</defs>
</svg>
