<svg width="509" height="537" viewBox="0 0 509 537" fill="none" xmlns="http://www.w3.org/2000/svg">
<path fill-rule="evenodd" clip-rule="evenodd" d="M254 512C392.071 512 504 400.071 504 262C504 123.929 392.071 12 254 12C115.929 12 4 123.929 4 262C4 400.071 115.929 512 254 512ZM259.5 158.559C185.5 158.559 162.5 206 162.5 262C162.5 302.5 201 355.412 259.5 354.059C328.7 352.459 355.5 305.559 355.5 262.059C355.5 207.559 347.104 158.559 259.5 158.559Z" fill="#D2C69B"/>
<path fill-rule="evenodd" clip-rule="evenodd" d="M278.5 7L256 12L231 34.5L192 29L165 46L134.5 49.5L104 66.5L74.5 122L40.5 141.5L24.5 163V186L36 211.5V235.5L24.5 257.5L13.6199 275L8 305.5L13.6199 330.416L47.5 357L59.5 368.5V389L67 412.5L88 425.5L109.5 429.5L104 454.5L124.5 485L165 507.743H197.5L227 496.5L273.5 515H310L340.5 496.5L365.5 485L374.5 462L394.5 441L418.5 432.5H444L467 412.5L470.5 389L474 357V330.416L492 305.5L509 280.5V245L495.5 220.5L481.581 195.5V174V141.5L460.5 111.5L422.5 95.5L386.5 74.5L357 54L346 34.5L330.5 24.5L300 12L278.5 7ZM382.5 275L378 252L364.5 230L368.5 211.5V186L346 167L310 159L293.5 150L271 135.5L246 127L223 135.5L208 150L196.5 167L175 178L153.5 186L134.5 211.5V245L153.5 264.5L157 293.5L153.5 318.5L157 335.5L182 344H208L250.5 357L278.5 373.5L324 379.5L340.5 357L348 327.5L373 318.5L382.5 299.5V275Z" fill="#FFBEF1"/>
</svg>
