<svg width="450" height="449" viewBox="0 0 450 449" fill="none" xmlns="http://www.w3.org/2000/svg">
<path d="M159 96.2137L225 73.7137L267.5 65.7137H325.5L387 85.7137L411.5 102.214L409 116.214L398.5 120.214L380.5 131.714L376 141.714L335 147.214L285.5 141.714L220 155.214L215.5 168.714L258 201.714L290.5 198.714L313 190.214L335 155.214L357 141.714L376 144.214L380.5 157.714L366 187.714L357 216.214L316 238.714L267.5 275.214L209 318.993L170 330.993L110.5 382.993L38 312.493L100.5 245.993L126 174.214L137 110.714L159 96.2137Z" fill="white"/>
<path d="M38 313.214L102 243.714C110.667 219.214 128.1 168.314 128.5 160.714C129 151.214 134 113.714 137.5 109.214C148 95.7137 243 66.2137 262 66.7137M262 66.7137C281 67.2137 319.5 75.2137 339 81.7137C354.6 86.9137 384.5 102.214 397.5 109.214C398.833 116.714 396.5 131.114 376.5 128.714C351.5 125.714 344 119.714 339 118.214C334 116.714 290.5 115.714 286 115.214C281.5 114.714 224.5 132.214 220 135.714C215.5 139.214 202 151.714 209 160.714C216 169.714 249 201.714 257.5 200.714C266 199.714 304.5 201.214 315 188.214C325.5 175.214 335.5 139.214 366.5 141.714C391.3 143.714 379.833 165.88 371 176.714C367.333 182.88 359.9 197.914 359.5 208.714C359 222.214 330 226.214 319.5 236.714C311.1 245.114 247 288.214 211.5 316.214C194 322.714 180.8 322.914 170 329.714C159.2 336.514 126.167 369.214 111 384.714M262 66.7137C277.333 64.7137 315.2 62.8137 344 71.2137C380 81.7137 407.5 97.2137 409 103.214C410.5 109.214 414 120.714 394.5 120.214" stroke="black" stroke-width="6"/>
<path d="M394 123.714C396 130.214 381.2 138.914 344 129.714C306.8 120.514 283.167 122.547 276 124.714C262 129.714 232.5 140.014 226.5 141.214C220.5 142.414 211.333 150.38 207.5 154.214" stroke="black" stroke-width="6"/>
<path d="M345 147.214C314 147.214 288.2 136.514 273 141.714C254 148.214 246.5 152.714 231 152.714C218.6 152.714 214 162.38 214.5 166.714" stroke="black" stroke-width="6"/>
<path d="M378.5 134.714C378.833 137.214 379 142.214 373.5 143.714" stroke="black" stroke-width="6"/>
</svg>
