<svg width="450" height="450" viewBox="0 0 450 450" fill="none" xmlns="http://www.w3.org/2000/svg">
<path d="M69 292L98.5 194.5L153 126L173.5 116L224 106V116L309.5 47L338 33L352 37.5L358.5 51L375.5 40L395 37.5L404 55.5L395 73.5L404 79.5L410 90L378.5 150L395 145L404 152.5L399.5 177L375.5 210L304 304.5L245 359.5L203 384.5L140.5 418L40 310L69 292Z" fill="white"/>
<path d="M40.5 308L69 293.5C69.6667 287.167 72.1 271.8 76.5 261C82 247.5 98 196 101.5 191.5C105 187 142.5 141.5 151.5 129C160.5 116.5 197.5 112 208.5 108C219.5 104 228 103.5 225 112.5C222 121.5 118 188.5 117 195.5" stroke="black" stroke-width="6" stroke-linecap="round"/>
<path d="M225.5 115C228 113 311.5 45 320.5 40C329.5 35 358 25.5 356.5 51" stroke="black" stroke-width="6" stroke-linecap="round"/>
<path d="M245 157.5C281 123.667 355.1 54.3 363.5 47.5C374 39 389.5 32.5 397.5 40C405.5 47.5 403 66.5 393 74.5" stroke="black" stroke-width="6" stroke-linecap="round"/>
<path d="M285 189.5C316.167 156.5 379.6 89.4 384 85C389.5 79.5 395.5 72.5 407.5 82C419.5 91.5 368 168 358 177.5" stroke="black" stroke-width="6" stroke-linecap="round"/>
<path d="M298.5 244.5C309.333 232.5 334.1 205.3 346.5 192.5C362 176.5 383 137 398 146C413 155 397 184 380.5 204C364 224 324.5 273.5 309.5 294.5C294.5 315.5 252.21 360.159 206.5 383.5C182 396.011 159.667 408 140.5 417" stroke="black" stroke-width="6" stroke-linecap="round"/>
</svg>
