<svg width="450" height="450" viewBox="0 0 450 450" fill="none" xmlns="http://www.w3.org/2000/svg">
<path d="M360.5 73L355 94L378.5 114.5L385 137.5L395.5 154.5L401 178.5L410 218L391.5 245.735L325.5 299.5L235.5 359.5L184.5 379L134 408L39 280.5L115.5 250.5L141 240.5L161 226L169.5 196.5L188.5 142.5L215 96.5L257.5 49.5L272.5 40L326 45.5L351.5 55L360.5 73Z" fill="white"/>
<path d="M40 281C56 273.333 92.6 256.9 111 252.5C134 247 158 232.5 163 221C168 209.5 180.549 129.951 225.5 85C242.5 68 249 44 277.5 40C296 46 327.601 40.8478 346 51.5C358.5 58.7368 366 73 356 91.5" stroke="black" stroke-width="6" stroke-linecap="round"/>
<path d="M301.5 77C311.5 69 336.5 67.5 342 81C347.75 95.1134 381.5 102 385.5 137.5C395.5 150.5 401.5 162 400 175C403.5 191 416.067 210.936 407.5 223.5C400 234.5 394.852 241.148 389 247C369.5 266.5 327 299 297.5 320.5C276.877 335.531 265.5 341 248.5 352C231.5 363 198.5 377.5 188 379C179.6 380.2 148.833 400.833 134.5 411M339.5 113.5C349.5 111.333 372.1 113.8 382.5 141" stroke="black" stroke-width="6" stroke-linecap="round"/>
</svg>
