<svg width="450" height="450" viewBox="0 0 450 450" fill="none" xmlns="http://www.w3.org/2000/svg">
<path d="M115.5 259.5L190.5 164.5L224.5 93L271 23.5L284.5 18L296.5 31L293.5 57L271 98L247.5 168L252.5 180H264.5L301.5 152.5L370 113L400 104.5L415 109L420.5 123.5L389.5 147.5L343 180L275.5 224L301.5 231.5L315.5 247L311 269.5L301.5 277L307 282L311 299.5L301.5 315.5L275.5 332.5L255 354L214 387.5L184.053 406.5L149.5 418.5L128 433L30 332.5L56.5 322L80.5 305.5L115.5 259.5Z" fill="white"/>
<path d="M32.5 330.5L58 321L80 304.5L169.5 194.5C174.5 188 177.567 179.557 181 175.5C186.5 169 194.5 157.5 196 154.5C202 142.5 214.5 110.5 223.5 94.5C232.5 78.5 261.5 36.5 266.5 30.5C271.5 24.5 281.5 12.5 290.5 21.5C299.5 30.5 300.5 43.5 290.5 62.5C280.5 81.5 259.5 120.5 254.5 144.5C249.5 168.5 242.5 178.5 254.5 180.5C266.5 182.5 271 174.5 290.5 159.5C310.016 144.488 368.5 110.5 387.5 106.5C406.5 102.5 414.5 103.5 418.5 114.5C422.5 125.5 409.533 134.68 391.5 145.5C374 156 359.42 168.077 350 174.5C339 182 316.5 197.5 299.5 207.5C283.654 216.821 273.5 223.429 278.5 225C296 230.5 311.506 230.783 314.5 246.5C316.5 257 311.5 269.5 303 276M284 269.5C299.5 269.5 314.8 287.6 312 298C308.5 311 305.5 314.5 289.5 323.5C273.5 332.5 275 334 271.5 339C268 344 230.5 376.5 213.5 387.5C201.136 395.5 187.5 406 174 412C165.128 415.943 140 422 129 432" stroke="black" stroke-width="6" stroke-linecap="round"/>
</svg>
