<svg width="450" height="450" viewBox="0 0 450 450" fill="none" xmlns="http://www.w3.org/2000/svg">
<g clip-path="url(#clip0)">
<path d="M88.2549 265.738L68.2549 245.738L74.7549 235.238L93.2549 230.738L129.255 245.738L170.755 282.738L178.255 229.238L165.255 139.238L160.755 67.738L165.255 53.738L178.255 49.238L189.755 53.738V31.738L199.255 22.738L218.255 26.738L256.255 168.238L267.255 183.738L280.755 171.238L304.255 124.238L331.755 49.238L339.255 37.238H352.255L362.255 53.738L352.255 86.738H369.255L381.255 100.738L352.255 223.238V349.738L336.755 400.238V463.738L207.755 472.738V392.238L170.755 368.238L137.755 329.738L115.255 290.738L88.2549 265.738Z" fill="white"/>
<path d="M190.755 56.738C189.255 46.738 188.455 26.038 197.255 23.238C208.255 19.738 219.255 23.738 221.755 34.238C223.755 42.638 240.588 111.071 248.755 144.238C251.922 158.405 260.355 186.038 268.755 183.238C279.255 179.738 297.755 138.238 302.255 129.238C306.755 120.238 328.255 60.238 329.755 53.738C331.255 47.238 337.255 34.238 345.755 36.238C354.255 38.238 363.755 46.738 361.755 56.738C359.755 66.738 333.755 152.738 313.755 202.738" stroke="black" stroke-width="6" stroke-linecap="round"/>
<path d="M350.755 95.738C353.088 90.9046 359.955 82.338 368.755 86.738C378.755 91.738 383.969 104.238 377.255 127.738C374.055 138.938 359.255 193.238 352.255 225.738C351.922 260.238 350.855 333.238 349.255 349.238C347.255 369.238 339.255 392.238 336.755 396.238C334.755 399.438 335.922 441.238 336.755 461.738" stroke="black" stroke-width="6" stroke-linecap="round"/>
<path d="M208.755 472.238V393.238C199.422 387.571 179.155 375.038 172.755 370.238C164.755 364.238 142.755 339.238 131.755 317.238C120.755 295.238 101.755 276.238 85.7549 264.238C69.7549 252.238 70.7549 252.238 68.2549 246.738C65.7549 241.238 81.7549 221.238 111.255 235.738C140.755 250.238 160.255 271.738 164.255 277.238C168.255 282.738 170.255 284.738 172.755 281.738C175.255 278.738 177.755 220.738 175.255 209.238C172.755 197.738 166.755 148.738 166.255 139.238C165.755 129.738 159.851 80.214 161.255 65.238C162.755 49.238 185.809 40.4539 193.755 66.738C200.255 88.238 212.255 157.238 217.255 191.738" stroke="black" stroke-width="6" stroke-linecap="round"/>
</g>
<defs>
<clipPath id="clip0">
<rect width="450" height="450" fill="white"/>
</clipPath>
</defs>
</svg>
