<svg width="2348" height="494" viewBox="0 0 2348 494" fill="none" xmlns="http://www.w3.org/2000/svg">
<g clip-path="url(#clip0)">
<path d="M360.5 117L355 138L378.5 158.5L385 181.5L395.5 198.5L401 222.5L410 262L391.5 289.735L325.5 343.5L235.5 403.5L184.5 423L134 452L39 324.5L115.5 294.5L141 284.5L161 270L169.5 240.5L188.5 186.5L215 140.5L257.5 93.5L272.5 84L326 89.5L351.5 99L360.5 117Z" fill="white"/>
<path d="M40 325C56 317.333 92.6 300.9 111 296.5C134 291 158 276.5 163 265C168 253.5 180.549 173.951 225.5 129C242.5 112 249 88 277.5 84C296 90 327.601 84.8478 346 95.5C358.5 102.737 366 117 356 135.5" stroke="black" stroke-width="6" stroke-linecap="round"/>
<path d="M301.5 121C311.5 113 336.5 111.5 342 125C347.75 139.113 381.5 146 385.5 181.5C395.5 194.5 401.5 206 400 219C403.5 235 416.067 254.936 407.5 267.5C400 278.5 394.852 285.148 389 291C369.5 310.5 327 343 297.5 364.5C276.877 379.531 265.5 385 248.5 396C231.5 407 198.5 421.5 188 423C179.6 424.2 148.833 444.833 134.5 455M339.5 157.5C349.5 155.333 372.1 157.8 382.5 185" stroke="black" stroke-width="6" stroke-linecap="round"/>
<path d="M519 336L548.5 238.5L603 170L623.5 160L674 150V160L759.5 91L788 77L802 81.5L808.5 95L825.5 84L845 81.5L854 99.5L845 117.5L854 123.5L860 134L828.5 194L845 189L854 196.5L849.5 221L825.5 254L754 348.5L695 403.5L653 428.5L590.5 462L490 354L519 336Z" fill="white"/>
<path d="M490.5 352L519 337.5C519.667 331.167 522.1 315.8 526.5 305C532 291.5 548 240 551.5 235.5C555 231 592.5 185.5 601.5 173C610.5 160.5 647.5 156 658.5 152C669.5 148 678 147.5 675 156.5C672 165.5 568 232.5 567 239.5" stroke="black" stroke-width="6" stroke-linecap="round"/>
<path d="M675.5 159C678 157 761.5 89 770.5 84C779.5 79 808 69.5 806.5 95" stroke="black" stroke-width="6" stroke-linecap="round"/>
<path d="M695 201.5C731 167.667 805.1 98.3 813.5 91.5C824 83 839.5 76.5 847.5 84C855.5 91.5 853 110.5 843 118.5" stroke="black" stroke-width="6" stroke-linecap="round"/>
<path d="M735 233.5C766.167 200.5 829.6 133.4 834 129C839.5 123.5 845.5 116.5 857.5 126C869.5 135.5 818 212 808 221.5" stroke="black" stroke-width="6" stroke-linecap="round"/>
<path d="M748.5 288.5C759.333 276.5 784.1 249.3 796.5 236.5C812 220.5 833 181 848 190C863 199 847 228 830.5 248C814 268 774.5 317.5 759.5 338.5C744.5 359.5 702.21 404.159 656.5 427.5C632 440.011 609.667 452 590.5 461" stroke="black" stroke-width="6" stroke-linecap="round"/>
<path d="M1015.5 303.5L1090.5 208.5L1124.5 137L1171 67.5L1184.5 62L1196.5 75L1193.5 101L1171 142L1147.5 212L1152.5 224H1164.5L1201.5 196.5L1270 157L1300 148.5L1315 153L1320.5 167.5L1289.5 191.5L1243 224L1175.5 268L1201.5 275.5L1215.5 291L1211 313.5L1201.5 321L1207 326L1211 343.5L1201.5 359.5L1175.5 376.5L1155 398L1114 431.5L1084.05 450.5L1049.5 462.5L1028 477L930 376.5L956.5 366L980.5 349.5L1015.5 303.5Z" fill="white"/>
<path d="M932.5 374.5L958 365L980 348.5L1069.5 238.5C1074.5 232 1077.57 223.557 1081 219.5C1086.5 213 1094.5 201.5 1096 198.5C1102 186.5 1114.5 154.5 1123.5 138.5C1132.5 122.5 1161.5 80.5 1166.5 74.5C1171.5 68.5 1181.5 56.5 1190.5 65.5C1199.5 74.5 1200.5 87.5 1190.5 106.5C1180.5 125.5 1159.5 164.5 1154.5 188.5C1149.5 212.5 1142.5 222.5 1154.5 224.5C1166.5 226.5 1171 218.5 1190.5 203.5C1210.02 188.488 1268.5 154.5 1287.5 150.5C1306.5 146.5 1314.5 147.5 1318.5 158.5C1322.5 169.5 1309.53 178.68 1291.5 189.5C1274 200 1259.42 212.077 1250 218.5C1239 226 1216.5 241.5 1199.5 251.5C1183.65 260.821 1173.5 267.429 1178.5 269C1196 274.5 1211.51 274.783 1214.5 290.5C1216.5 301 1211.5 313.5 1203 320M1184 313.5C1199.5 313.5 1214.8 331.6 1212 342C1208.5 355 1205.5 358.5 1189.5 367.5C1173.5 376.5 1175 378 1171.5 383C1168 388 1130.5 420.5 1113.5 431.5C1101.14 439.5 1087.5 450 1074 456C1065.13 459.943 1040 466 1029 476" stroke="black" stroke-width="6" stroke-linecap="round"/>
<path d="M1509 141.214L1575 118.714L1617.5 110.714H1675.5L1737 130.714L1761.5 147.214L1759 161.214L1748.5 165.214L1730.5 176.714L1726 186.714L1685 192.214L1635.5 186.714L1570 200.214L1565.5 213.714L1608 246.714L1640.5 243.714L1663 235.214L1685 200.214L1707 186.714L1726 189.214L1730.5 202.714L1716 232.714L1707 261.214L1666 283.714L1617.5 320.214L1559 363.993L1520 375.993L1460.5 427.993L1388 357.493L1450.5 290.993L1476 219.214L1487 155.714L1509 141.214Z" fill="white"/>
<path d="M1388 358.214L1452 288.714C1460.67 264.214 1478.1 213.314 1478.5 205.714C1479 196.214 1484 158.714 1487.5 154.214C1498 140.714 1593 111.214 1612 111.714M1612 111.714C1631 112.214 1669.5 120.214 1689 126.714C1704.6 131.914 1734.5 147.214 1747.5 154.214C1748.83 161.714 1746.5 176.114 1726.5 173.714C1701.5 170.714 1694 164.714 1689 163.214C1684 161.714 1640.5 160.714 1636 160.214C1631.5 159.714 1574.5 177.214 1570 180.714C1565.5 184.214 1552 196.714 1559 205.714C1566 214.714 1599 246.714 1607.5 245.714C1616 244.714 1654.5 246.214 1665 233.214C1675.5 220.214 1685.5 184.214 1716.5 186.714C1741.3 188.714 1729.83 210.88 1721 221.714C1717.33 227.88 1709.9 242.914 1709.5 253.714C1709 267.214 1680 271.214 1669.5 281.714C1661.1 290.114 1597 333.214 1561.5 361.214C1544 367.714 1530.8 367.914 1520 374.714C1509.2 381.514 1476.17 414.214 1461 429.714M1612 111.714C1627.33 109.714 1665.2 107.814 1694 116.214C1730 126.714 1757.5 142.214 1759 148.214C1760.5 154.214 1764 165.714 1744.5 165.214" stroke="black" stroke-width="6"/>
<path d="M1744 168.714C1746 175.214 1731.2 183.914 1694 174.714C1656.8 165.514 1633.17 167.547 1626 169.714C1612 174.714 1582.5 185.014 1576.5 186.214C1570.5 187.414 1561.33 195.38 1557.5 199.214" stroke="black" stroke-width="6"/>
<path d="M1695 192.214C1664 192.214 1638.2 181.514 1623 186.714C1604 193.214 1596.5 197.714 1581 197.714C1568.6 197.714 1564 207.38 1564.5 211.714" stroke="black" stroke-width="6"/>
<path d="M1728.5 179.714C1728.83 182.214 1729 187.214 1723.5 188.714" stroke="black" stroke-width="6"/>
<path d="M1888.25 265.738L1868.25 245.738L1874.75 235.238L1893.25 230.738L1929.25 245.738L1970.75 282.738L1978.25 229.238L1965.25 139.238L1960.75 67.738L1965.25 53.738L1978.25 49.238L1989.75 53.738V31.738L1999.25 22.738L2018.25 26.738L2056.25 168.238L2067.25 183.738L2080.75 171.238L2104.25 124.238L2131.75 49.238L2139.25 37.238H2152.25L2162.25 53.738L2152.25 86.738H2169.25L2181.25 100.738L2152.25 223.238V349.738L2136.75 400.238V463.738L2007.75 472.738V392.238L1970.75 368.238L1937.75 329.738L1915.25 290.738L1888.25 265.738Z" fill="white"/>
<path d="M1990.75 56.738C1989.25 46.738 1988.45 26.038 1997.25 23.238C2008.25 19.738 2019.25 23.738 2021.75 34.238C2023.75 42.638 2040.59 111.071 2048.75 144.238C2051.92 158.405 2060.35 186.038 2068.75 183.238C2079.25 179.738 2097.75 138.238 2102.25 129.238C2106.75 120.238 2128.25 60.238 2129.75 53.738C2131.25 47.238 2137.25 34.238 2145.75 36.238C2154.25 38.238 2163.75 46.738 2161.75 56.738C2159.75 66.738 2133.75 152.738 2113.75 202.738" stroke="black" stroke-width="6" stroke-linecap="round"/>
<path d="M2150.75 95.738C2153.09 90.9046 2159.95 82.338 2168.75 86.738C2178.75 91.738 2183.97 104.238 2177.25 127.738C2174.05 138.938 2159.25 193.238 2152.25 225.738C2151.92 260.238 2150.85 333.238 2149.25 349.238C2147.25 369.238 2139.25 392.238 2136.75 396.238C2134.75 399.438 2135.92 441.238 2136.75 461.738" stroke="black" stroke-width="6" stroke-linecap="round"/>
<path d="M2008.75 472.238V393.238C1999.42 387.571 1979.15 375.038 1972.75 370.238C1964.75 364.238 1942.75 339.238 1931.75 317.238C1920.75 295.238 1901.75 276.238 1885.75 264.238C1869.75 252.238 1870.75 252.238 1868.25 246.738C1865.75 241.238 1881.75 221.238 1911.25 235.738C1940.75 250.238 1960.25 271.738 1964.25 277.238C1968.25 282.738 1970.26 284.738 1972.75 281.738C1975.25 278.738 1977.75 220.738 1975.25 209.238C1972.75 197.738 1966.75 148.738 1966.25 139.238C1965.75 129.738 1959.85 80.214 1961.25 65.238C1962.75 49.238 1985.81 40.4539 1993.75 66.738C2000.25 88.238 2012.25 157.238 2017.25 191.738" stroke="black" stroke-width="6" stroke-linecap="round"/>
</g>
<defs>
<clipPath id="clip0">
<rect width="2348" height="494" fill="white"/>
</clipPath>
</defs>
</svg>
